<?xml version="1.0" standalone="no"?>
<!DOCTYPE svg PUBLIC "-//W3C//DTD SVG 20010904//EN"
 "http://www.w3.org/TR/2001/REC-SVG-20010904/DTD/svg10.dtd">
<svg version="1.0" xmlns="http://www.w3.org/2000/svg"
 width="768.000000pt" height="768.000000pt" viewBox="0 0 768.000000 768.000000"
 preserveAspectRatio="xMidYMid meet">
<metadata>
Created by potrace 1.14, written by Peter Selinger 2001-2017
</metadata>
<g transform="translate(0.000000,768.000000) scale(0.100000,-0.100000)"
fill="#000000" stroke="none">
<path d="M5328 7645 c-2 -2 -31 -6 -64 -9 -110 -9 -249 -46 -354 -92 -138 -62
-329 -170 -387 -219 -6 -5 -37 -28 -67 -49 -31 -22 -56 -43 -56 -48 0 -4 -5
-8 -10 -8 -6 0 -21 -10 -34 -22 -13 -13 -41 -39 -62 -59 -41 -37 -136 -140
-167 -180 -69 -89 -187 -293 -217 -374 -4 -11 -13 -33 -21 -50 -7 -16 -13 -32
-14 -35 -1 -3 -7 -25 -15 -50 -7 -25 -15 -49 -16 -55 -1 -5 -18 -62 -36 -125
-32 -108 -33 -123 -30 -240 1 -69 4 -136 6 -150 2 -14 4 -32 4 -41 3 -29 45
-36 197 -34 139 1 158 4 255 34 58 18 121 40 140 48 19 9 55 24 80 35 132 58
271 153 365 250 59 61 99 105 230 252 69 77 197 322 248 476 63 189 84 317 92
575 l4 130 -34 22 c-18 12 -35 20 -37 18z"/>
<path d="M5095 5818 c-96 -14 -112 -17 -206 -39 -52 -13 -97 -24 -101 -25 -5
-1 -9 -2 -10 -4 -2 -1 -10 -3 -18 -5 -57 -11 -217 -59 -227 -67 -7 -5 -17 -7
-22 -4 -5 4 -12 2 -16 -4 -3 -5 -13 -10 -21 -10 -14 0 -267 -88 -329 -115
-166 -71 -229 -85 -314 -70 -54 9 -218 64 -395 132 -93 36 -174 66 -180 67 -6
1 -16 5 -22 8 -6 4 -28 12 -50 17 -21 6 -109 28 -194 51 -181 47 -206 51 -322
55 -89 2 -129 -2 -254 -29 -39 -9 -88 -18 -110 -21 -64 -10 -75 -12 -174 -39
-111 -29 -141 -41 -275 -108 -103 -51 -293 -173 -355 -228 -111 -98 -216 -213
-308 -335 -37 -49 -139 -221 -184 -310 -75 -146 -181 -409 -203 -502 -3 -10
-13 -49 -24 -88 -21 -76 -37 -161 -46 -240 -2 -27 -8 -77 -11 -110 -14 -126
-7 -523 11 -683 11 -91 34 -233 40 -242 3 -4 7 -37 9 -73 3 -36 17 -112 31
-169 15 -57 31 -122 36 -146 5 -24 11 -47 13 -51 3 -4 7 -18 10 -32 16 -78 33
-139 61 -224 35 -106 61 -174 68 -182 4 -3 7 -13 7 -20 0 -8 9 -33 20 -55 11
-23 20 -45 20 -49 0 -3 10 -28 22 -55 12 -27 22 -51 23 -54 4 -29 189 -428
204 -440 4 -3 12 -16 19 -30 18 -37 50 -86 104 -163 26 -37 48 -72 48 -77 0
-6 5 -10 10 -10 6 0 10 -7 10 -15 0 -8 4 -15 8 -15 4 0 15 -13 25 -29 71 -120
375 -509 486 -621 148 -150 214 -199 371 -275 142 -69 181 -78 330 -79 174 -1
247 11 405 66 73 25 274 105 295 117 14 8 116 39 150 46 8 2 15 4 15 5 0 1 7
3 15 5 25 4 123 25 150 31 14 3 34 7 45 9 82 18 125 22 197 19 92 -3 94 -3
313 -39 68 -11 138 -34 350 -115 174 -67 322 -112 405 -125 247 -37 401 -15
589 87 82 44 201 127 201 140 0 4 5 8 11 8 6 0 16 6 24 13 141 133 229 226
305 321 8 10 20 23 25 30 32 34 143 187 216 298 85 127 97 148 155 248 17 30
48 84 69 120 72 126 152 290 153 314 0 5 4 12 9 15 7 5 31 62 36 86 1 6 5 12
8 15 6 5 59 152 63 174 5 25 29 92 39 104 5 6 6 12 2 12 -4 0 -2 6 4 14 10 11
6 22 -20 50 -17 20 -37 36 -45 36 -8 0 -14 5 -14 10 0 6 -7 10 -15 10 -8 0
-15 5 -15 11 0 5 -4 8 -9 4 -5 -3 -12 -1 -15 4 -3 5 -29 21 -58 36 -62 33
-176 109 -233 156 -70 58 -199 192 -250 259 -28 36 -53 67 -57 68 -5 2 -8 8
-8 14 0 5 -9 23 -20 38 -63 88 -192 392 -206 483 -3 17 -6 41 -8 52 -2 11 -7
47 -10 80 -4 33 -10 78 -13 100 -3 22 -6 103 -6 180 -1 153 6 216 31 309 6 20
8 36 6 36 -3 0 0 9 6 21 6 11 12 30 14 42 1 12 7 33 13 47 6 14 23 63 38 110
49 149 142 324 199 375 7 6 43 46 81 90 38 44 78 88 89 98 75 65 158 131 231
182 39 27 72 53 73 57 2 5 10 14 17 22 18 17 -4 62 -66 138 -39 48 -191 202
-250 254 -34 30 -199 146 -234 165 -163 87 -225 118 -225 114 0 -3 -10 1 -23
10 -25 16 -213 80 -263 89 -61 11 -90 16 -112 21 -98 23 -395 37 -487 23z"/>
</g>
</svg>
